# Blender v2.78 (sub 0) OBJ File: 'block.blend'
# www.blender.org
mtllib cableTile.mtl
o Cube.006_Cube.017
v 0.165246 0.082830 0.842809
v 0.199338 0.200143 0.842809
v 0.165246 0.082830 0.688794
v 0.199338 0.200143 0.688794
v 0.497036 0.082830 0.842809
v 0.470379 0.200143 0.842809
v 0.497036 0.082830 0.688794
v 0.470379 0.200143 0.688794
v 0.334859 0.082830 0.688794
v 0.334859 0.186006 0.688794
v 0.334859 0.082830 0.842809
v 0.334859 0.186006 0.842809
v 0.199338 0.141287 0.842809
v 0.199338 0.141287 0.688794
v 0.470379 0.141287 0.688794
v 0.470379 0.141287 0.842809
v 0.334859 0.141287 0.842809
v 0.334859 0.141287 0.688794
v -1.000000 -2.000000 1.000000
v -1.000000 0.000000 1.000000
v -1.000000 -2.000000 -1.000000
v -1.000000 0.000000 -1.000000
v 1.000000 -2.000000 1.000000
v 1.000000 0.000000 1.000000
v 1.000000 -2.000000 -1.000000
v 1.000000 0.000000 -1.000000
v -0.946803 0.000000 0.946803
v -0.946803 0.000000 -0.946803
v 0.946803 0.000000 -0.946803
v 0.946803 0.000000 0.946803
v -0.921552 0.085798 0.920835
v -0.921552 0.057427 -0.920835
v 0.921552 0.056879 -0.920835
v 0.921552 0.085250 0.920835
v -0.338490 0.054498 -0.434611
v -0.291114 0.111324 -0.452458
v -0.343830 0.054498 -0.630318
v -0.293204 0.111324 -0.630318
v -0.182789 0.054498 -0.493263
v -0.230165 0.111324 -0.475416
v -0.177449 0.054498 -0.630318
v -0.228075 0.111324 -0.630318
v -0.213207 0.054498 -0.289763
v -0.187090 0.111324 -0.333133
v -0.153492 0.111324 -0.388927
v -0.127376 0.054498 -0.432297
v -0.023023 0.054498 -0.242904
v 0.000081 0.111324 -0.287950
v 0.029805 0.111324 -0.345902
v 0.052910 0.054498 -0.390948
v 0.070799 0.054498 -0.169458
v 0.117324 0.111324 -0.189419
v 0.177177 0.111324 -0.215099
v 0.223702 0.054498 -0.235060
v 0.070277 0.054498 -0.058847
v 0.111750 0.111324 -0.029814
v 0.165105 0.111324 0.007538
v 0.206578 0.054498 0.036571
v -0.169769 0.054498 -0.017053
v -0.130725 0.111324 0.015173
v -0.080496 0.111324 0.056632
v -0.041451 0.054498 0.088858
v -0.220669 0.053420 0.187640
v -0.170806 0.110892 0.189355
v -0.105785 0.111742 0.193000
v -0.054563 0.055591 0.196953
v -0.183616 0.043948 0.394523
v -0.149716 0.101866 0.358627
v -0.098600 0.103894 0.318318
v -0.053032 0.049128 0.291548
v 0.068247 0.072876 0.478115
v 0.095587 0.130303 0.436319
v 0.139961 0.131917 0.388673
v 0.181606 0.076997 0.356396
v 0.140831 0.070419 0.655195
v 0.177614 0.128506 0.622558
v 0.231621 0.130653 0.586221
v 0.278886 0.076815 0.549909
v 0.285605 0.081171 0.791758
v 0.329460 0.128549 0.805402
v 0.400001 0.121502 0.732937
v 0.496653 0.073199 0.718898
v -0.469236 0.065078 -0.615951
v -0.359752 0.195971 -0.618003
v -0.466147 0.062916 -0.720875
v -0.359752 0.195971 -0.720875
v -0.098436 0.062916 -0.618003
v -0.203339 0.197464 -0.618003
v -0.098436 0.062916 -0.720875
v -0.203339 0.197464 -0.720875
v -0.281523 0.175698 -0.720875
v -0.282291 0.062916 -0.775154
v -0.282291 0.062916 -0.580347
v -0.281523 0.175698 -0.618003
v -0.156502 0.153608 -0.618003
v -0.156502 0.153608 -0.720875
v -0.408081 0.153608 -0.720875
v -0.408081 0.153608 -0.618003
v -0.282291 0.158536 -0.749661
v -0.282291 0.155034 -0.606221
vt 0.3642 0.1996
vt 0.3772 0.2109
vt 0.3813 0.2346
vt 0.3650 0.2477
vt 0.4098 0.2573
vt 0.4091 0.2438
vt 0.4402 0.2326
vt 0.4529 0.2435
vt 0.4361 0.2094
vt 0.4519 0.1968
vt 0.4081 0.1864
vt 0.4086 0.2000
vt 0.3380 0.2602
vt 0.4112 0.2815
vt 0.4770 0.1843
vt 0.4074 0.1623
vt 0.3382 0.1894
vt 0.4770 0.2538
vt 0.9385 0.2506
vt 0.7482 0.2506
vt 0.7482 0.0603
vt 0.9385 0.0603
vt 0.9422 0.7050
vt 0.7519 0.7050
vt 0.7519 0.5147
vt 0.9422 0.5147
vt 0.9447 0.2894
vt 0.9447 0.4797
vt 0.7544 0.4797
vt 0.7544 0.2894
vt 0.7582 0.9204
vt 0.7582 0.7301
vt 0.9485 0.7301
vt 0.9485 0.9204
vt 0.6740 0.3455
vt 0.6739 0.9648
vt 0.6588 0.9489
vt 0.6580 0.3602
vt 0.0549 0.3374
vt 0.6290 0.3846
vt 0.0871 0.3711
vt 0.0474 0.9648
vt 0.0388 0.3204
vt 0.0636 0.9492
vt 0.6424 0.9320
vt 0.0817 0.9281
vt 0.5296 0.1624
vt 0.5298 0.1400
vt 0.5706 0.1283
vt 0.5848 0.1450
vt 0.5677 0.1160
vt 0.5782 0.0993
vt 0.5310 0.1204
vt 0.5351 0.0965
vt 0.4856 0.1237
vt 0.4968 0.1075
vt 0.4446 0.0794
vt 0.4565 0.0636
vt 0.5108 0.0868
vt 0.4729 0.1439
vt 0.4707 0.0437
vt 0.4301 0.0993
vt 0.4021 0.0378
vt 0.3995 0.0573
vt 0.3472 0.0697
vt 0.3361 0.0538
vt 0.3971 0.0818
vt 0.4039 0.0133
vt 0.3207 0.0353
vt 0.3120 0.1298
vt 0.2944 0.1108
vt 0.1273 0.2399
vt 0.1107 0.2377
vt 0.1079 0.2201
vt 0.1259 0.2137
vt 0.3637 0.0893
vt 0.0956 0.2434
vt 0.1280 0.2496
vt 0.1252 0.2066
vt 0.0935 0.2157
vt 0.3405 0.1620
vt 0.3242 0.1449
vt 0.2689 0.1455
vt 0.2738 0.1641
vt 0.2214 0.1723
vt 0.2267 0.1525
vt 0.2796 0.1883
vt 0.2620 0.1221
vt 0.1594 0.2394
vt 0.1451 0.2352
vt 0.1427 0.2180
vt 0.1573 0.2120
vt 0.2325 0.1269
vt 0.2130 0.1950
vt 0.1496 0.1378
vt 0.1611 0.1155
vt 0.1681 0.0978
vt 0.1758 0.0757
vt 0.1030 0.0910
vt 0.0979 0.1118
vt 0.0509 0.0899
vt 0.0471 0.0707
vt 0.0901 0.1324
vt 0.1082 0.0673
vt 0.0312 0.0453
vt 0.0420 0.1028
vt 0.1973 0.2002
vt 0.1234 0.1701
vt 0.0557 0.2073
vt 0.0556 0.2550
vt 0.1302 0.2872
vt 0.1973 0.2470
vn -1.0000 0.0000 0.0000
vn 0.0000 0.0000 -1.0000
vn 1.0000 0.0000 0.0000
vn 0.0000 0.0000 1.0000
vn 0.1038 0.9946 0.0000
vn -0.1038 0.9946 0.0000
vn 0.9099 0.4149 0.0000
vn -0.8638 0.5038 0.0000
vn 0.0000 1.0000 0.0000
vn 0.0000 0.2905 0.9569
vn 0.0003 0.9999 -0.0154
vn 0.0001 0.4137 -0.9104
vn 0.9423 0.3348 -0.0025
vn -0.9431 0.3325 -0.0025
vn -0.7561 0.6543 0.0150
vn 0.7587 0.6512 0.0193
vn 0.5701 0.6437 -0.5106
vn -0.5778 0.6438 0.5016
vn 0.1718 0.6502 -0.7401
vn -0.1798 0.6513 0.7372
vn -0.4860 0.6389 0.5964
vn 0.5138 0.6410 -0.5702
vn 0.1671 0.5569 0.8136
vn 0.7880 0.6139 0.0465
vn 0.2509 0.9680 0.0000
vn -0.7899 0.6130 -0.0178
vn -0.0855 0.4901 -0.8675
vn -0.0369 0.2113 0.9767
vn -0.1480 0.5485 -0.8230
vn -0.0065 0.9983 0.0578
vn -0.7505 0.6365 -0.1777
vn -0.0068 1.0000 -0.0014
vn 0.7578 0.6423 0.1151
vn 0.6835 0.7300 0.0000
vn 0.7547 0.6559 0.0128
vn 0.0842 0.4764 -0.8752
vn -0.7784 0.6095 0.1503
vn -0.6592 0.7520 0.0000
vn -0.3033 0.6378 0.7079
vn -0.0964 0.9933 -0.0636
vn 0.1641 0.5656 -0.8082
vn 0.0343 0.9994 -0.0057
vn -0.7278 0.6082 0.3168
vn -0.0227 0.9996 0.0182
vn 0.6346 0.7105 -0.3040
vn 0.4584 -0.0042 0.8887
vn 0.4017 0.7923 -0.4592
vn -0.6128 0.5676 0.5499
vn 0.0361 0.2044 0.9782
vn -0.2682 0.9634 0.0000
vn 0.1557 0.1868 0.9700
vn -0.8326 0.5536 -0.0181
vn 0.2565 0.2091 -0.9437
vn 0.8422 0.5392 0.0000
vn -0.1463 0.1993 0.9689
vn -0.2565 0.2091 -0.9437
usemtl Material.005
s off
f 13/1/1 2/2/1 4/3/1 14/4/1
f 18/5/2 10/6/2 8/7/2 15/8/2
f 15/8/3 8/7/3 6/9/3 16/10/3
f 17/11/4 12/12/4 2/2/4 13/1/4
f 10/6/5 4/3/5 2/2/5 12/12/5
f 8/7/6 10/6/6 12/12/6 6/9/6
f 16/10/4 6/9/4 12/12/4 17/11/4
f 14/4/2 4/3/2 10/6/2 18/5/2
f 3/13/2 14/4/2 18/5/2 9/14/2
f 5/15/4 16/10/4 17/11/4 11/16/4
f 11/16/4 17/11/4 13/1/4 1/17/4
f 7/18/7 15/8/7 16/10/7 5/15/7
f 9/14/2 18/5/2 15/8/2 7/18/2
f 1/17/8 13/1/8 14/4/8 3/13/8
f 19/19/1 20/20/1 22/21/1 21/22/1
f 21/23/2 22/24/2 26/25/2 25/26/2
f 25/27/3 26/28/3 24/29/3 23/30/3
f 23/31/4 24/32/4 20/33/4 19/34/4
f 24/35/9 26/36/9 29/37/9 30/38/9
f 27/39/10 30/38/10 34/40/10 31/41/10
f 22/42/9 20/43/9 27/39/9 28/44/9
f 20/43/9 24/35/9 30/38/9 27/39/9
f 26/36/9 22/42/9 28/44/9 29/37/9
f 33/45/11 32/46/11 31/41/11 34/40/11
f 29/37/12 28/44/12 32/46/12 33/45/12
f 30/38/13 29/37/13 33/45/13 34/40/13
f 28/44/14 27/39/14 31/41/14 32/46/14
f 35/47/15 36/48/15 38/49/15 37/50/15
f 37/50/2 38/49/2 42/51/2 41/52/2
f 41/52/16 42/51/16 40/53/16 39/54/16
f 40/53/9 36/48/9 44/55/9 45/56/9
f 42/51/9 38/49/9 36/48/9 40/53/9
f 45/56/9 44/55/9 48/57/9 49/58/9
f 39/54/17 40/53/17 45/56/17 46/59/17
f 36/48/18 35/47/18 43/60/18 44/55/18
f 46/59/19 45/56/19 49/58/19 50/61/19
f 44/55/20 43/60/20 47/62/20 48/57/20
f 53/63/9 52/64/9 56/65/9 57/66/9
f 48/57/21 47/62/21 51/67/21 52/64/21
f 49/58/9 48/57/9 52/64/9 53/63/9
f 50/61/22 49/58/22 53/63/22 54/68/22
f 58/69/23 57/66/23 61/70/23 62/71/23
f 54/68/24 53/63/24 57/66/24 58/69/24
f 91/72/25 86/73/25 84/74/25 94/75/25
f 52/64/26 51/67/26 55/76/26 56/65/26
f 97/77/27 86/73/27 91/72/27 99/78/27
f 100/79/28 94/75/28 84/74/28 98/80/28
f 56/65/29 55/76/29 59/81/29 60/82/29
f 57/66/9 56/65/9 60/82/9 61/70/9
f 65/83/30 64/84/30 68/85/30 69/86/30
f 60/82/31 59/81/31 63/87/31 64/84/31
f 61/70/32 60/82/32 64/84/32 65/83/32
f 62/71/33 61/70/33 65/83/33 66/88/33
f 96/89/34 90/90/34 88/91/34 95/92/34
f 66/88/35 65/83/35 69/86/35 70/93/35
f 99/78/36 91/72/36 90/90/36 96/89/36
f 64/84/37 63/87/37 67/94/37 68/85/37
f 98/80/38 84/74/38 86/73/38 97/77/38
f 68/85/39 67/94/39 71/95/39 72/96/39
f 69/86/40 68/85/40 72/96/40 73/97/40
f 70/93/41 69/86/41 73/97/41 74/98/41
f 77/99/42 76/100/42 80/101/42 81/102/42
f 72/96/43 71/95/43 75/103/43 76/100/43
f 73/97/44 72/96/44 76/100/44 77/99/44
f 74/98/45 73/97/45 77/99/45 78/104/45
f 82/105/46 81/102/46 80/101/46 79/106/46
f 78/104/47 77/99/47 81/102/47 82/105/47
f 76/100/48 75/103/48 79/106/48 80/101/48
f 95/92/49 88/91/49 94/75/49 100/79/49
f 90/90/50 91/72/50 94/75/50 88/91/50
f 87/107/51 95/92/51 100/79/51 93/108/51
f 83/109/52 98/80/52 97/77/52 85/110/52
f 92/111/53 99/78/53 96/89/53 89/112/53
f 89/112/54 96/89/54 95/92/54 87/107/54
f 93/108/55 100/79/55 98/80/55 83/109/55
f 85/110/56 97/77/56 99/78/56 92/111/56
