# Blender v2.78 (sub 0) OBJ File: 'block.blend'
# www.blender.org
mtllib normalTile.mtl
o Cube.005_Cube.012
v 1.000000 -2.000000 -5.000000
v 1.000000 0.000000 -5.000000
v 1.000000 -2.000000 -7.000000
v 1.000000 0.000000 -7.000000
v 3.000000 -2.000000 -5.000000
v 3.000000 0.000000 -5.000000
v 3.000000 -2.000000 -7.000000
v 3.000000 0.000000 -7.000000
v 1.053197 0.000000 -5.053197
v 1.053197 0.000000 -6.946803
v 2.946803 0.000000 -6.946803
v 2.946803 0.000000 -5.053197
v 1.078448 0.030643 -5.079165
v 1.078448 0.103352 -6.920835
v 2.921552 0.103352 -6.920835
v 2.921552 0.030643 -5.079165
vt 0.9147 0.1927
vt 0.7391 0.1927
vt 0.7391 0.0171
vt 0.9147 0.0171
vt 0.4578 0.1968
vt 0.2822 0.1968
vt 0.2822 0.0212
vt 0.4578 0.0212
vt 0.6881 0.0212
vt 0.6881 0.1968
vt 0.5125 0.1968
vt 0.5125 0.0212
vt 0.0557 0.2005
vt 0.0557 0.0249
vt 0.2313 0.0249
vt 0.2313 0.2005
vt 0.7693 0.2301
vt 0.7693 0.9730
vt 0.7506 0.9539
vt 0.7499 0.2492
vt 0.0453 0.2528
vt 0.7366 0.2642
vt 0.0585 0.2662
vt 0.0526 0.9661
vt 0.0269 0.2342
vt 0.0705 0.9488
vt 0.7121 0.9204
vt 0.1101 0.9055
vn -1.0000 0.0000 0.0000
vn 0.0000 0.0000 -1.0000
vn 1.0000 0.0000 0.0000
vn 0.0000 0.0000 1.0000
vn 0.0000 1.0000 0.0000
vn 0.0000 0.6465 0.7629
vn 0.0000 0.9992 0.0394
vn 0.0000 0.2437 -0.9699
vn 0.9357 0.3527 0.0069
vn -0.9357 0.3527 0.0069
usemtl Material.004
s off
f 1/1/1 2/2/1 4/3/1 3/4/1
f 3/5/2 4/6/2 8/7/2 7/8/2
f 7/9/3 8/10/3 6/11/3 5/12/3
f 5/13/4 6/14/4 2/15/4 1/16/4
f 6/17/5 8/18/5 11/19/5 12/20/5
f 9/21/6 12/20/6 16/22/6 13/23/6
f 4/24/5 2/25/5 9/21/5 10/26/5
f 2/25/5 6/17/5 12/20/5 9/21/5
f 8/18/5 4/24/5 10/26/5 11/19/5
f 15/27/7 14/28/7 13/23/7 16/22/7
f 11/19/8 10/26/8 14/28/8 15/27/8
f 12/20/9 11/19/9 15/27/9 16/22/9
f 10/26/10 9/21/10 13/23/10 14/28/10
