# Blender v2.78 (sub 0) OBJ File: 'block.blend'
# www.blender.org
mtllib teleport.mtl
o Cube.010_Cube.008
v -4.000000 0.000000 1.100000
v -4.000000 0.235400 1.089444
v -3.655585 0.000000 1.168508
v -3.651545 0.235400 1.158756
v -3.363604 0.000000 1.363604
v -3.356140 0.235400 1.356140
v -3.168509 0.000000 1.655585
v -3.158756 0.235400 1.651545
v -3.100000 0.000000 2.000000
v -3.089444 0.235400 2.000000
v -3.168509 0.000000 2.344415
v -3.158756 0.235400 2.348455
v -3.363604 0.000000 2.636396
v -3.356140 0.235400 2.643860
v -3.655585 0.000000 2.831491
v -3.651545 0.235400 2.841244
v -4.000000 0.000000 2.900000
v -4.000000 0.235400 2.910556
v -4.344415 0.000000 2.831492
v -4.348454 0.235400 2.841244
v -4.636396 0.000000 2.636396
v -4.643860 0.235400 2.643861
v -4.831491 0.000000 2.344415
v -4.841244 0.235400 2.348455
v -4.900000 0.000000 2.000000
v -4.910556 0.235400 2.000000
v -4.831491 0.000000 1.655585
v -4.841244 0.235400 1.651545
v -4.636396 0.000000 1.363604
v -4.643860 0.235400 1.356139
v -4.344415 0.000000 1.168508
v -4.348454 0.235400 1.158756
v -3.678116 0.235400 1.222902
v -4.000000 0.235400 1.158875
v -3.405235 0.235400 1.405235
v -3.222902 0.235400 1.678116
v -3.158875 0.235400 2.000000
v -3.222902 0.235400 2.321884
v -3.405235 0.235400 2.594765
v -3.678116 0.235400 2.777098
v -4.000000 0.235400 2.841125
v -4.321884 0.235400 2.777098
v -4.594765 0.235400 2.594765
v -4.777098 0.235400 2.321885
v -4.841125 0.235400 2.000000
v -4.777098 0.235400 1.678115
v -4.594765 0.235400 1.405235
v -4.321884 0.235400 1.222902
v -3.723982 0.113214 1.333633
v -4.000000 0.113214 1.278729
v -3.489985 0.113214 1.489985
v -3.333633 0.113214 1.723982
v -3.278729 0.113214 2.000000
v -3.333633 0.113214 2.276018
v -3.489985 0.113214 2.510015
v -3.723982 0.113214 2.666367
v -4.000000 0.113214 2.721271
v -4.276018 0.113214 2.666367
v -4.510015 0.113214 2.510015
v -4.666367 0.113214 2.276018
v -4.721271 0.113214 2.000000
v -4.666367 0.113214 1.723982
v -4.510015 0.113214 1.489985
v -4.276018 0.113214 1.333633
v -3.916850 0.079951 1.799259
v -4.000000 0.079951 1.782720
v -3.846359 0.079951 1.846360
v -3.799259 0.079951 1.916850
v -3.782720 0.079951 2.000000
v -3.799259 0.079951 2.083150
v -3.846359 0.079951 2.153640
v -3.916850 0.079951 2.200741
v -4.000000 0.079951 2.217280
v -4.083149 0.079951 2.200741
v -4.153640 0.079951 2.153641
v -4.200741 0.079951 2.083150
v -4.217280 0.079951 2.000000
v -4.200741 0.079951 1.916850
v -4.153640 0.079951 1.846360
v -4.083149 0.079951 1.799259
v -3.904512 0.145031 1.769471
v -4.000000 0.145031 1.750478
v -3.823561 0.145031 1.823561
v -3.769471 0.145031 1.904512
v -3.750478 0.145031 2.000000
v -3.769471 0.145031 2.095488
v -3.823561 0.145031 2.176439
v -3.904512 0.145031 2.230529
v -4.000000 0.145031 2.249522
v -4.095488 0.145031 2.230529
v -4.176439 0.145031 2.176439
v -4.230528 0.145031 2.095488
v -4.249522 0.145031 2.000000
v -4.230528 0.145031 1.904512
v -4.176439 0.145031 1.823561
v -4.095488 0.145031 1.769471
v -4.000000 0.361484 2.000000
v -3.134261 0.264347 1.641399
v -3.337392 0.264347 1.337392
v -3.641399 0.264347 2.865739
v -3.337392 0.264347 2.662608
v -4.865739 0.264347 2.358601
v -4.662608 0.264347 2.662609
v -4.358601 0.264347 1.134260
v -4.662608 0.264347 1.337391
v -3.200275 0.264347 1.668743
v -3.387917 0.264347 1.387917
v -3.668743 0.264347 2.799725
v -3.387917 0.264347 2.612083
v -4.799726 0.264347 2.331257
v -4.612083 0.264347 2.612083
v -4.331257 0.264347 1.200274
v -4.612083 0.264347 1.387917
v -4.860569 0.214521 2.361367
v -4.663185 0.214521 2.656773
v -4.885064 0.243467 2.371513
v -4.681932 0.243467 2.675521
v -3.639060 0.215211 2.859930
v -3.343654 0.215211 2.662546
v -3.628913 0.244157 2.884425
v -3.324906 0.244157 2.681294
v -3.134162 0.208827 1.635112
v -3.331545 0.208827 1.339706
v -3.109666 0.237773 1.624966
v -3.312798 0.237773 1.320958
v -4.363169 0.211607 1.136734
v -4.658574 0.211607 1.334118
v -4.373315 0.240553 1.112239
v -4.677322 0.240553 1.315370
v -5.000000 -2.000000 3.000000
v -5.000000 0.000000 3.000000
v -5.000000 -2.000000 1.000000
v -5.000000 0.000000 1.000000
v -3.000000 -2.000000 3.000000
v -3.000000 0.000000 3.000000
v -3.000000 -2.000000 1.000000
v -3.000000 0.000000 1.000000
v -4.946803 0.000000 2.946803
v -4.946803 0.000000 1.053197
v -3.053197 0.000000 1.053197
v -3.053197 0.000000 2.946803
v -4.921553 0.066997 2.921552
v -4.921553 0.066997 1.078448
v -3.078448 0.066997 1.078448
v -3.078448 0.066997 2.921552
v -4.691279 0.037015 1.443369
v -4.690793 0.143741 1.422616
v -4.756660 0.042770 1.379482
v -4.740290 0.148575 1.360547
v -4.614067 0.037015 1.369689
v -4.634820 0.143741 1.369203
v -4.691931 0.032487 1.295251
v -4.693366 0.141121 1.299486
v -4.819227 0.092739 1.288662
v -4.806394 0.056250 1.323982
v -4.739038 0.059663 1.241265
v -4.770400 0.095213 1.228699
v -4.856971 0.105529 1.314792
v -4.828896 0.025704 1.392060
v -4.681544 0.033170 1.211102
v -4.750152 0.110941 1.183611
v -4.884948 0.093128 1.284946
v -4.863950 0.033425 1.342736
v -4.753743 0.039009 1.207394
v -4.805057 0.097176 1.186833
vt 0.5608 0.8554
vt 0.5054 0.8167
vt 0.5406 0.7358
vt 0.6113 0.7513
vt 0.5440 0.6343
vt 0.6111 0.6243
vt 0.5258 0.5787
vt 0.5765 0.5293
vt 0.4476 0.4983
vt 0.4862 0.4433
vt 0.3671 0.4631
vt 0.3829 0.3929
vt 0.2664 0.4596
vt 0.2570 0.3922
vt 0.2095 0.4766
vt 0.1611 0.4249
vt 0.1286 0.5546
vt 0.0731 0.5153
vt 0.0929 0.6357
vt 0.0219 0.6198
vt 0.0891 0.7373
vt 0.0215 0.7473
vt 0.1078 0.7940
vt 0.0566 0.8433
vt 0.1860 0.8747
vt 0.1470 0.9301
vt 0.2671 0.9100
vt 0.2514 0.9810
vt 0.3688 0.9137
vt 0.3788 0.9810
vt 0.2758 0.4842
vt 0.2697 0.4802
vt 0.2586 0.4730
vt 0.4248 0.8950
vt 0.4741 0.9459
vt 0.1952 0.8611
vt 0.1372 0.7883
vt 0.1731 0.7723
vt 0.2191 0.8252
vt 0.5351 0.6207
vt 0.5287 0.5955
vt 0.2152 0.5059
vt 0.1421 0.5639
vt 0.4918 0.8075
vt 0.5232 0.7321
vt 0.2708 0.8926
vt 0.3634 0.4803
vt 0.4962 0.5843
vt 0.5208 0.5950
vt 0.5059 0.5882
vt 0.4192 0.8655
vt 0.4384 0.5117
vt 0.1103 0.6395
vt 0.3599 0.8882
vt 0.5186 0.6432
vt 0.3777 0.8995
vt 0.3811 0.9016
vt 0.3819 0.9050
vt 0.1145 0.7286
vt 0.4815 0.6533
vt 0.4814 0.7229
vt 0.3668 0.6966
vt 0.3670 0.6767
vt 0.4147 0.5474
vt 0.3542 0.5218
vt 0.2800 0.8508
vt 0.2852 0.5215
vt 0.3498 0.8509
vt 0.2312 0.5421
vt 0.4032 0.8297
vt 0.1780 0.5879
vt 0.4560 0.7837
vt 0.1522 0.6488
vt 0.1520 0.7185
vt 0.4605 0.6001
vt 0.2894 0.6434
vt 0.3077 0.6360
vt 0.3103 0.6501
vt 0.2971 0.6554
vt 0.2671 0.6755
vt 0.2669 0.6954
vt 0.3595 0.6585
vt 0.2744 0.7137
vt 0.3459 0.6441
vt 0.2881 0.7281
vt 0.3276 0.6362
vt 0.3065 0.7359
vt 0.3264 0.7361
vt 0.3446 0.7286
vt 0.2750 0.6571
vt 0.3590 0.7149
vt 0.2963 0.7162
vt 0.2863 0.7059
vt 0.3170 0.6860
vt 0.3237 0.7220
vt 0.3369 0.7167
vt 0.2868 0.6653
vt 0.3471 0.7068
vt 0.3528 0.6936
vt 0.2812 0.6784
vt 0.3530 0.6794
vt 0.2810 0.6927
vt 0.3476 0.6662
vt 0.3377 0.6559
vt 0.3246 0.6503
vt 0.3094 0.7219
vt 0.4087 0.8902
vt 0.3659 0.8922
vt 0.4154 0.8752
vt 0.5298 0.6254
vt 0.5226 0.6372
vt 0.1126 0.7782
vt 0.1030 0.7463
vt 0.1105 0.7345
vt 0.1275 0.7845
vt 0.2253 0.4817
vt 0.2191 0.4963
vt 0.0974 0.7498
vt 0.1053 0.7791
vt 0.2263 0.4779
vt 0.2548 0.4711
vt 0.1010 0.7491
vt 0.1087 0.7772
vt 0.2244 0.4744
vt 0.2554 0.4669
vt 0.5320 0.6215
vt 0.5256 0.5968
vt 0.4089 0.8978
vt 0.4073 0.8945
vt 0.9843 0.9804
vt 0.8125 0.9804
vt 0.8125 0.8086
vt 0.9843 0.8086
vt 0.8008 0.7852
vt 0.6289 0.7852
vt 0.6289 0.6133
vt 0.8008 0.6133
vt 0.9882 0.6172
vt 0.9882 0.7891
vt 0.8164 0.7891
vt 0.8164 0.6172
vt 0.6172 0.9804
vt 0.6172 0.8086
vt 0.7891 0.8086
vt 0.7891 0.9804
vt 0.0000 0.0000
vt 0.0000 0.0000
vt 0.0000 0.0000
vt 0.0000 0.0000
vt 0.9708 0.0251
vt 0.9708 0.4628
vt 0.9601 0.4513
vt 0.9596 0.0356
vt 0.5445 0.0252
vt 0.9452 0.0520
vt 0.5613 0.0400
vt 0.5338 0.4514
vt 0.5338 0.0138
vt 0.5450 0.4410
vt 0.9433 0.4366
vt 0.5594 0.4245
vt 0.1174 0.0344
vt 0.1931 0.0350
vt 0.2011 0.0861
vt 0.1292 0.0971
vt 0.2453 0.0953
vt 0.3156 0.1080
vt 0.2862 0.1552
vt 0.2499 0.1812
vt 0.2474 0.0355
vt 0.3219 0.0344
vt 0.0000 0.0000
vt 0.0000 0.0000
vt 0.0000 0.0000
vt 0.0000 0.0000
vt 0.1870 0.1802
vt 0.2724 0.2003
vt 0.1625 0.1927
vt 0.3870 0.1977
vt 0.1502 0.1492
vt 0.0427 0.1770
vt 0.3014 0.3004
vt 0.2410 0.2227
vt 0.1736 0.2229
vt 0.0946 0.2409
vn 0.1949 -0.0439 -0.9798
vn 0.5550 -0.0439 -0.8307
vn 0.8307 -0.0439 -0.5550
vn 0.9798 -0.0439 -0.1949
vn 0.9798 -0.0439 0.1949
vn 0.8307 -0.0439 0.5550
vn 0.5550 -0.0439 0.8307
vn 0.1949 -0.0439 0.9798
vn -0.1949 -0.0439 0.9798
vn -0.5550 -0.0439 0.8307
vn -0.8307 -0.0439 0.5550
vn -0.9798 -0.0439 0.1949
vn -0.9798 -0.0439 -0.1949
vn -0.8307 -0.0439 -0.5550
vn 0.7071 -0.0000 -0.7071
vn -0.5550 -0.0439 -0.8307
vn -0.1949 -0.0439 -0.9798
vn 0.7068 0.6933 -0.1406
vn -0.5557 -0.7439 0.3713
vn 0.0000 1.0000 -0.0000
vn 0.3827 0.0000 0.9239
vn -0.7753 -0.0980 0.6239
vn -0.0373 0.9977 0.0558
vn -0.7068 0.6933 -0.1406
vn 0.7068 0.6933 0.1406
vn -0.5992 0.6933 -0.4004
vn 0.5992 0.6933 0.4004
vn -0.4004 0.6933 -0.5992
vn 0.4004 0.6933 0.5992
vn -0.1406 0.6933 -0.7068
vn -0.1406 0.6933 0.7068
vn 0.1406 0.6933 0.7068
vn 0.1406 0.6933 -0.7068
vn -0.4004 0.6933 0.5992
vn 0.4004 0.6933 -0.5992
vn -0.5992 0.6933 0.4004
vn 0.5992 0.6933 -0.4004
vn -0.7068 0.6933 0.1406
vn 0.4997 -0.4370 0.7479
vn 0.0373 0.9977 -0.0558
vn -0.0558 0.9977 0.0373
vn 0.0558 0.9977 -0.0373
vn -0.0658 0.9977 0.0131
vn 0.0658 0.9977 -0.0131
vn -0.0658 0.9977 -0.0131
vn 0.0658 0.9977 0.0131
vn -0.0558 0.9977 -0.0373
vn 0.0558 0.9977 0.0373
vn -0.0373 0.9977 -0.0558
vn 0.0373 0.9977 0.0558
vn -0.0131 0.9977 -0.0658
vn -0.0131 0.9977 0.0658
vn 0.0131 0.9977 0.0658
vn 0.0131 0.9977 -0.0658
vn -0.6498 0.7491 0.1292
vn -0.4997 -0.4370 -0.7479
vn 0.1755 -0.4370 0.8822
vn 0.1755 -0.4370 -0.8822
vn -0.1755 -0.4370 -0.8822
vn -0.1755 -0.4370 0.8822
vn 0.4997 -0.4370 -0.7479
vn -0.4997 -0.4370 0.7479
vn 0.7479 -0.4370 -0.4997
vn -0.7479 -0.4370 0.4997
vn 0.8822 -0.4370 -0.1755
vn -0.8822 -0.4370 0.1755
vn 0.8822 -0.4370 0.1755
vn -0.8822 -0.4370 -0.1755
vn 0.7479 -0.4370 0.4997
vn -0.7479 -0.4370 -0.4997
vn 0.6498 0.7491 0.1292
vn -0.6498 0.7491 -0.1292
vn 0.5509 0.7491 0.3681
vn -0.5509 0.7491 -0.3681
vn 0.3681 0.7491 0.5509
vn -0.3681 0.7491 -0.5509
vn 0.1292 0.7491 0.6498
vn 0.1292 0.7491 -0.6498
vn -0.1292 0.7491 -0.6498
vn -0.1292 0.7491 0.6498
vn 0.3681 0.7491 -0.5509
vn -0.3681 0.7491 0.5509
vn 0.5509 0.7491 -0.3681
vn -0.5509 0.7491 0.3681
vn 0.6498 0.7491 -0.1292
vn -0.9239 0.0000 0.3827
vn 0.7071 -0.0000 0.7071
vn -0.4275 0.6386 -0.6398
vn 0.5557 -0.7439 -0.3713
vn 0.4275 0.6386 0.6398
vn -0.3827 -0.0000 -0.9239
vn -0.7071 -0.0000 0.7071
vn 0.3713 0.7439 0.5557
vn -0.6398 0.6386 0.4275
vn 0.9239 -0.0000 -0.3827
vn 0.6398 0.6386 -0.4275
vn -0.7071 0.0000 -0.7071
vn -0.6185 -0.6683 0.4133
vn -0.4775 -0.0980 -0.8731
vn 0.6239 -0.0980 0.7753
vn -0.5557 0.7439 0.3713
vn 0.4133 -0.6683 0.6185
vn -0.8731 -0.0980 0.4775
vn -0.3713 -0.7439 -0.5557
vn 0.7753 -0.0980 -0.6239
vn 0.6185 -0.6683 -0.4133
vn 0.5557 0.7439 -0.3713
vn -0.6239 -0.0980 -0.7753
vn 0.4775 -0.0980 0.8731
vn -0.4133 -0.6683 -0.6185
vn -0.3713 0.7439 -0.5557
vn 0.3713 -0.7439 0.5557
vn 0.8731 -0.0980 -0.4775
vn -1.0000 0.0000 0.0000
vn 0.0000 0.0000 -1.0000
vn 1.0000 0.0000 0.0000
vn 0.0000 0.0000 1.0000
vn 0.0000 -1.0000 0.0000
vn 0.0000 0.3527 0.9357
vn 0.0000 0.3527 -0.9357
vn 0.9357 0.3527 0.0000
vn -0.9357 0.3527 0.0000
vn -0.7188 0.1823 0.6709
vn 0.6952 0.1171 -0.7092
vn 0.7215 0.0863 -0.6870
vn 0.6839 0.1363 0.7167
vn 0.5630 0.6685 0.4860
vn 0.0476 0.9986 -0.0222
vn -0.3213 0.9011 -0.2913
vn -0.7211 0.2624 0.6412
vn 0.0233 -0.3149 -0.9488
vn -0.2489 0.9547 -0.1633
vn -0.7550 0.2992 0.5834
vn -0.5630 -0.6685 -0.4860
usemtl Material.003
s off
f 1/1/1 2/2/1 4/3/1 3/4/1
f 3/4/2 4/3/2 6/5/2 5/6/2
f 5/6/3 6/5/3 8/7/3 7/8/3
f 7/8/4 8/7/4 10/9/4 9/10/4
f 9/10/5 10/9/5 12/11/5 11/12/5
f 11/12/6 12/11/6 14/13/6 13/14/6
f 13/14/7 14/13/7 16/15/7 15/16/7
f 15/16/8 16/15/8 18/17/8 17/18/8
f 17/18/9 18/17/9 20/19/9 19/20/9
f 19/20/10 20/19/10 22/21/10 21/22/10
f 21/22/11 22/21/11 24/23/11 23/24/11
f 23/24/12 24/23/12 26/25/12 25/26/12
f 25/26/13 26/25/13 28/27/13 27/28/13
f 27/28/14 28/27/14 30/29/14 29/30/14
f 14/13/15 39/31/15 109/32/15 101/33/15
f 29/30/16 30/29/16 32/34/16 31/35/16
f 31/35/17 32/34/17 2/2/17 1/1/17
f 45/36/18 44/37/18 60/38/18 61/39/18
f 8/7/19 6/5/19 123/40/19 122/41/19
f 18/17/20 16/15/20 40/42/20 41/43/20
f 4/3/20 2/2/20 34/44/20 33/45/20
f 28/27/20 26/25/20 45/36/20 46/46/20
f 14/13/20 12/11/20 38/47/20 39/31/20
f 36/48/21 8/7/21 98/49/21 106/50/21
f 2/2/20 32/34/20 48/51/20 34/44/20
f 10/9/20 8/7/20 36/48/20 37/52/20
f 20/19/20 18/17/20 41/43/20 42/53/20
f 30/29/20 28/27/20 46/46/20 47/54/20
f 6/5/20 4/3/20 33/45/20 35/55/20
f 30/29/22 105/56/22 129/57/22 127/58/22
f 26/25/20 24/23/20 44/37/20 45/36/20
f 12/11/20 10/9/20 37/52/20 38/47/20
f 22/21/20 20/19/20 42/53/20 43/59/20
f 51/60/23 49/61/23 65/62/23 67/63/23
f 38/47/24 37/52/24 53/64/24 54/65/24
f 46/46/25 45/36/25 61/39/25 62/66/25
f 39/31/26 38/47/26 54/65/26 55/67/26
f 47/54/27 46/46/27 62/66/27 63/68/27
f 40/42/28 39/31/28 55/67/28 56/69/28
f 48/51/29 47/54/29 63/68/29 64/70/29
f 41/43/30 40/42/30 56/69/30 57/71/30
f 33/45/31 34/44/31 50/72/31 49/61/31
f 34/44/32 48/51/32 64/70/32 50/72/32
f 42/53/33 41/43/33 57/71/33 58/73/33
f 35/55/34 33/45/34 49/61/34 51/60/34
f 43/59/35 42/53/35 58/73/35 59/74/35
f 36/48/36 35/55/36 51/60/36 52/75/36
f 44/37/37 43/59/37 59/74/37 60/38/37
f 37/52/38 36/48/38 52/75/38 53/64/38
f 72/76/39 71/77/39 87/78/39 88/79/39
f 59/74/40 58/73/40 74/80/40 75/81/40
f 52/75/41 51/60/41 67/63/41 68/82/41
f 60/38/42 59/74/42 75/81/42 76/83/42
f 53/64/43 52/75/43 68/82/43 69/84/43
f 61/39/44 60/38/44 76/83/44 77/85/44
f 54/65/45 53/64/45 69/84/45 70/86/45
f 62/66/46 61/39/46 77/85/46 78/87/46
f 55/67/47 54/65/47 70/86/47 71/77/47
f 63/68/48 62/66/48 78/87/48 79/88/48
f 56/69/49 55/67/49 71/77/49 72/76/49
f 64/70/50 63/68/50 79/88/50 80/89/50
f 57/71/51 56/69/51 72/76/51 73/90/51
f 49/61/52 50/72/52 66/91/52 65/62/52
f 50/72/53 64/70/53 80/89/53 66/91/53
f 58/73/54 57/71/54 73/90/54 74/80/54
f 93/92/55 92/93/55 97/94/55
f 80/89/56 79/88/56 95/95/56 96/96/56
f 73/90/57 72/76/57 88/79/57 89/97/57
f 65/62/58 66/91/58 82/98/58 81/99/58
f 66/91/59 80/89/59 96/96/59 82/98/59
f 74/80/60 73/90/60 89/97/60 90/100/60
f 67/63/61 65/62/61 81/99/61 83/101/61
f 75/81/62 74/80/62 90/100/62 91/102/62
f 68/82/63 67/63/63 83/101/63 84/103/63
f 76/83/64 75/81/64 91/102/64 92/93/64
f 69/84/65 68/82/65 84/103/65 85/104/65
f 77/85/66 76/83/66 92/93/66 93/92/66
f 70/86/67 69/84/67 85/104/67 86/105/67
f 78/87/68 77/85/68 93/92/68 94/106/68
f 71/77/69 70/86/69 86/105/69 87/78/69
f 79/88/70 78/87/70 94/106/70 95/95/70
f 86/105/71 85/104/71 97/94/71
f 94/106/72 93/92/72 97/94/72
f 87/78/73 86/105/73 97/94/73
f 95/95/74 94/106/74 97/94/74
f 88/79/75 87/78/75 97/94/75
f 96/96/76 95/95/76 97/94/76
f 89/97/77 88/79/77 97/94/77
f 81/99/78 82/98/78 97/94/78
f 82/98/79 96/96/79 97/94/79
f 90/100/80 89/97/80 97/94/80
f 83/101/81 81/99/81 97/94/81
f 91/102/82 90/100/82 97/94/82
f 84/103/83 83/101/83 97/94/83
f 92/93/84 91/102/84 97/94/84
f 85/104/85 84/103/85 97/94/85
f 104/107/20 105/56/20 113/108/20 112/109/20
f 98/49/20 99/110/20 107/111/20 106/50/20
f 102/112/20 103/113/20 111/114/20 110/115/20
f 100/116/20 101/33/20 109/32/20 108/117/20
f 40/42/86 16/15/86 100/116/86 108/117/86
f 22/21/87 43/59/87 111/114/87 103/113/87
f 39/31/88 40/42/88 108/117/88 109/32/88
f 24/23/89 22/21/89 115/118/89 114/119/89
f 47/54/90 48/51/90 112/109/90 113/108/90
f 44/37/91 24/23/91 102/112/91 110/115/91
f 30/29/92 47/54/92 113/108/92 105/56/92
f 101/33/93 100/116/93 120/120/93 121/121/93
f 35/55/94 36/48/94 106/50/94 107/111/94
f 48/51/95 32/34/95 104/107/95 112/109/95
f 43/59/96 44/37/96 110/115/96 111/114/96
f 6/5/97 35/55/97 107/111/97 99/110/97
f 114/119/98 115/118/98 117/122/98 116/123/98
f 102/112/99 24/23/99 114/119/99 116/123/99
f 22/21/100 103/113/100 117/122/100 115/118/100
f 103/113/101 102/112/101 116/123/101 117/122/101
f 118/124/102 119/125/102 121/121/102 120/120/102
f 100/116/103 16/15/103 118/124/103 120/120/103
f 16/15/104 14/13/104 119/125/104 118/124/104
f 14/13/105 101/33/105 121/121/105 119/125/105
f 122/41/106 123/40/106 125/126/106 124/127/106
f 99/110/107 98/49/107 124/127/107 125/126/107
f 6/5/108 99/110/108 125/126/108 123/40/108
f 98/49/109 8/7/109 122/41/109 124/127/109
f 126/128/110 127/58/110 129/57/110 128/129/110
f 105/56/111 104/107/111 128/129/111 129/57/111
f 32/34/112 30/29/112 127/58/112 126/128/112
f 104/107/113 32/34/113 126/128/113 128/129/113
f 130/130/114 131/131/114 133/132/114 132/133/114
f 132/134/115 133/135/115 137/136/115 136/137/115
f 136/138/116 137/139/116 135/140/116 134/141/116
f 134/142/117 135/143/117 131/144/117 130/145/117
f 132/146/118 136/147/118 134/148/118 130/149/118
f 135/150/20 137/151/20 140/152/20 141/153/20
f 138/154/119 141/153/119 145/155/119 142/156/119
f 133/157/20 131/158/20 138/154/20 139/159/20
f 131/158/20 135/150/20 141/153/20 138/154/20
f 137/151/20 133/157/20 139/159/20 140/152/20
f 144/160/20 143/161/20 142/156/20 145/155/20
f 140/152/120 139/159/120 143/161/120 144/160/120
f 141/153/121 140/152/121 144/160/121 145/155/121
f 139/159/122 138/154/122 142/156/122 143/161/122
f 146/162/123 147/163/123 149/164/123 148/165/123
f 153/166/124 152/167/124 156/168/124 157/169/124
f 152/167/125 153/166/125 151/170/125 150/171/125
f 150/172/126 151/173/126 147/174/126 146/175/126
f 154/176/127 157/169/127 161/177/127 158/178/127
f 153/166/128 149/164/128 147/163/128 151/170/128
f 157/169/127 156/168/127 160/179/127 161/177/127
f 149/164/129 153/166/129 157/169/129 154/176/129
f 148/165/130 149/164/130 154/176/130 155/180/130
f 155/180/127 154/176/127 158/178/127 159/181/127
f 161/177/131 160/179/131 164/182/131 165/183/131
f 158/178/132 161/177/132 165/183/132 162/184/132
f 159/181/133 158/178/133 162/184/133 163/185/133
f 163/185/134 162/184/134 165/183/134 164/182/134
